<?xml version="1.0" encoding="UTF-8"?>
<svg xmlns="http://www.w3.org/2000/svg" xmlns:xlink="http://www.w3.org/1999/xlink" width="16pt" height="16pt" viewBox="0 0 16 16" version="1.1">
<g id="surface1">
<path style=" stroke:none;fill-rule:nonzero;fill:rgb(0%,0%,0%);fill-opacity:1;" d="M 8.5 0.203125 C 4.226562 0.203125 0 2.339844 0 5.800781 C 0 8 1.648438 9.25 2.648438 9.25 C 3.0625 9.25 3.300781 8.386719 3.300781 8.144531 C 3.300781 7.851562 2.3125 7.234375 2.3125 6.023438 C 2.3125 3.511719 4.863281 1.730469 8.164062 1.730469 C 11 1.730469 13.101562 2.941406 13.101562 5.164062 C 13.101562 6.820312 12.210938 9.933594 9.335938 9.933594 C 8.300781 9.933594 7.414062 9.371094 7.414062 8.566406 C 7.414062 7.382812 8.511719 6.242188 8.511719 5.023438 C 8.511719 2.953125 4.601562 3.328125 4.601562 5.828125 C 4.601562 6.351562 4.6875 6.933594 5 7.414062 C 4.425781 9.269531 3.25 12.035156 3.25 13.945312 C 3.25 14.539062 3.363281 15.117188 3.4375 15.710938 C 3.578125 15.828125 3.507812 15.816406 3.726562 15.757812 C 5.824219 13.601562 5.75 13.179688 6.699219 10.355469 C 7.210938 11.085938 8.539062 11.480469 9.585938 11.480469 C 14.011719 11.480469 16 8.246094 16 5.332031 C 16 2.226562 12.425781 0.203125 8.5 0.203125 Z M 8.5 0.203125 "/>
</g>
</svg>
